<svg xmlns="http://www.w3.org/2000/svg" xmlns:xlink="http://www.w3.org/1999/xlink"><symbol fill="currentColor" id="sprite-arrow-bottom-left" viewBox="0 0 14 14"><path fill="inherit" d="M14 13q0 .8-.9.9L1 14a1 1 0 0 1-.9-.9V1Q0 0 1 0t.8.9V11L12.4.3q.6-.6 1.2 0t0 1.2L3 12.3l10.2-.1q.8 0 .9.8"/></symbol><use xlink:href="#sprite-arrow-bottom-left" width="14" height="14" y="0"/><symbol fill="currentColor" id="sprite-arrow-bottom-right" viewBox="0 0 28 28"><path fill="inherit" d="M26 0q1.7.2 1.8 1.7l.2 24.6q-.2 1.6-1.7 1.7H1.8Q.2 27.9 0 26.2q.2-1.6 1.7-1.7h20.4L.6 3.2C-.1 2.5-.1 1.4.6.8 1.2 0 2.3 0 3 .8L24.5 22l-.2-20.4Q24.5.1 26 0"/></symbol><use xlink:href="#sprite-arrow-bottom-right" width="28" height="28" y="14"/><symbol fill="currentColor" id="sprite-arrow-left" viewBox="0 0 17 18"><path fill="inherit" d="M8.795 1.193a1 1 0 0 1 0 1.414L3.428 7.974l11.731-.007a1.004 1.004 0 0 1 0 2.008L3.43 9.968l5.366 5.367a1 1 0 1 1-1.414 1.414L.311 9.678a1 1 0 0 1-.213-.325 1 1 0 0 1 0-.764 1 1 0 0 1 .212-.325l7.071-7.071a1 1 0 0 1 1.414 0"/></symbol><use xlink:href="#sprite-arrow-left" width="17" height="18" y="42"/><symbol fill="currentColor" id="sprite-arrow-right" viewBox="0 0 18 18"><path fill="inherit" d="M8.322 1.193a1 1 0 0 0 0 1.414l5.367 5.367-11.73-.007a1.004 1.004 0 0 0 0 2.008l11.73-.007-5.367 5.367a1 1 0 1 0 1.415 1.414l7.07-7.071a1 1 0 0 0 .213-.325 1 1 0 0 0 0-.764 1 1 0 0 0-.212-.325L9.737 1.193a1 1 0 0 0-1.415 0"/></symbol><use xlink:href="#sprite-arrow-right" width="18" height="18" y="60"/><symbol fill="currentColor" id="sprite-arrow-top-right" viewBox="0 0 16 16"><path fill="inherit" d="M2.6 3.2q0-.7.7-.7l9.8-.1q.6 0 .7.7v9.8q-.1.6-.8.7a1 1 0 0 1-.6-.7V4.8l-8.6 8.6q-.4.3-1 0a1 1 0 0 1 0-1l8.6-8.6H3.2a1 1 0 0 1-.6-.6"/></symbol><use xlink:href="#sprite-arrow-top-right" width="16" height="16" y="78"/><symbol fill="currentColor" id="sprite-back" viewBox="0 0 11 13"><path fill="inherit" d="M9.663 3.391 5.987 1.15a1.41 1.41 0 0 0-1.464 0L.847 3.391c-.42.257-.677.714-.677 1.207v3.807c0 .494.257.951.677 1.208l3.676 2.239c.45.274 1.014.274 1.463 0l3.677-2.24c.42-.256.677-.713.677-1.207V4.598c0-.493-.257-.95-.677-1.207"/></symbol><use xlink:href="#sprite-back" width="11" height="13" y="94"/><symbol fill="none" stroke="currentColor" id="sprite-check-circle" viewBox="0 0 48 48"><path stroke-linecap="round" stroke-linejoin="round" stroke-width="4" d="M43.6 20A20 20 0 1 1 34 6.7"/><path stroke-linecap="round" stroke-linejoin="round" stroke-width="4" d="m18 22 6 6L44 8"/></symbol><use xlink:href="#sprite-check-circle" width="48" height="48" y="107"/><symbol fill="currentColor" id="sprite-chevron-down" viewBox="0 0 24 24"><path fill="inherit" d="m12.71 15.54 5.65-5.66a1 1 0 0 0-.704-1.71 1 1 0 0 0-.705.29l-5 4.95L7 8.46a1 1 0 0 0-1.41 0 1 1 0 0 0-.3.71 1 1 0 0 0 .3.71l5.65 5.66a1 1 0 0 0 1.47 0"/></symbol><use xlink:href="#sprite-chevron-down" width="24" height="24" y="155"/><symbol fill="currentColor" id="sprite-chevron-right" viewBox="0 0 7 12"><path fill="inherit" d="M6.33 5.29 2.09 1.05A1 1 0 1 0 .67 2.46L4.21 6 .67 9.54a1 1 0 0 0 0 1.41 1 1 0 0 0 .71.29 1 1 0 0 0 .71-.29l4.24-4.24a1 1 0 0 0 0-1.42"/></symbol><use xlink:href="#sprite-chevron-right" width="7" height="12" y="179"/><symbol fill="currentColor" id="sprite-chevron" viewBox="0 0 12 12"><path fill="inherit" fill-rule="evenodd" d="m2 4 1-1 3.5 3.5L10 3l1 1-4.5 4.4z" clip-rule="evenodd"/></symbol><use xlink:href="#sprite-chevron" width="12" height="12" y="191"/><symbol fill="currentColor" id="sprite-close" viewBox="0 0 12 12"><path fill="inherit" d="m7.41 6 4.3-4.29A1.004 1.004 0 0 0 10.29.29L6 4.59 1.71.29A1.004 1.004 0 1 0 .29 1.71L4.59 6l-4.3 4.29a1 1 0 0 0 0 1.42 1 1 0 0 0 1.42 0L6 7.41l4.29 4.3a1 1 0 0 0 1.639-.325 1 1 0 0 0-.22-1.095z"/></symbol><use xlink:href="#sprite-close" width="12" height="12" y="203"/><symbol fill="currentColor" id="sprite-facebook" viewBox="0 0 26 26"><path fill="inherit" d="M14.5 14H17l.4-3h-3V9q0-1.4 1.8-1.6h1.3V4.8q-1-.2-2.3-.3-3.9 0-4 4.2V11H8.4v3h2.8v7.4h3.3z"/></symbol><use xlink:href="#sprite-facebook" width="26" height="26" y="215"/><symbol fill="currentColor" id="sprite-info" viewBox="0 0 32 32"><path fill="inherit" d="M15.6 28.5a1.6 1.6 0 0 1-1.6-1.6v-15a1.6 1.6 0 1 1 3.2 0v15a1.6 1.6 0 0 1-1.6 1.6m0-20.2A1.6 1.6 0 0 1 14 6.7V5.6a1.6 1.6 0 1 1 3.2 0v1a1.6 1.6 0 0 1-1.6 1.7"/></symbol><use xlink:href="#sprite-info" width="32" height="32" y="241"/><symbol fill="currentColor" id="sprite-linkedin" viewBox="0 0 26 26"><path fill="inherit" d="M3.9 6.5q0-.8.6-1.4T6 4.5t1.6.6q.6.6.6 1.5t-.6 1.3q-.7.6-1.6.6t-1.6-.6-.6-1.4m.2 15V10h4v11.4zm6 0h4V15l.1-1q.3-.5.8-1l1.2-.3q2 0 2 2.6v6h4V15q0-2.6-1.3-3.8-1.3-1.3-3.3-1.3a4 4 0 0 0-3.5 1.9V10h-4l.1 3.4z"/></symbol><use xlink:href="#sprite-linkedin" width="26" height="26" y="273"/><symbol fill="currentColor" id="sprite-location" viewBox="0 0 28 28"><path fill="inherit" d="M17.5 9.8q0 1.8-1.3 2.9-1 .8-2.4.9-1 0-2-.7-1.6-1-1.7-3a3.7 3.7 0 0 1 7.4 0m4-6.8C17.3-1 10.5-1 6.2 3a10 10 0 0 0-.8 13.8L13.9 27l8.4-10.2A10 10 0 0 0 21.5 3"/></symbol><use xlink:href="#sprite-location" width="28" height="28" y="299"/><symbol fill="currentColor" id="sprite-lock" viewBox="0 0 20 20"><path fill-rule="evenodd" d="M15.9 7.5h-.7V6c0-3-2.2-5.2-5.1-5.2a5 5 0 0 0-5.1 5v1.7h-.7q-1.6.2-1.8 1.9v8q.1 1.6 1.8 1.8H16q1.7-.2 1.8-1.8v-8q-.2-1.7-1.8-1.9M7.2 6c0-1.7 1.3-3 2.9-3S13 4.3 13 6v1.6H7.2zm3.7 7.4v2.3a.8.8 0 0 1-1.6 0v-2.3a1.5 1.5 0 0 1 .8-2.9 1.5 1.5 0 0 1 .8 2.9" clip-rule="evenodd"/></symbol><use xlink:href="#sprite-lock" width="20" height="20" y="327"/><symbol fill="currentColor" id="sprite-logo" viewBox="0 0 232 60"><path d="M9.8 22c0-2.3 2-4.2 7.4-4.2q5.3 0 10.9 2.9l2.8-6.5A28 28 0 0 0 17.3 11C6.2 11 .8 16.2.8 22.4c0 13.6 22.7 9 22.7 15.8 0 2.2-2.1 3.9-7.5 3.9-4.7 0-9.6-1.6-13-3.8l-3 6.3C3.5 47.2 9.7 49 16 49c11.1 0 16.5-5.2 16.5-11.4 0-13.4-22.7-8.8-22.7-15.5m55.9.7v-3.7h-8.3v28.1H66V34c0-5.3 3.2-7.8 8-7.8l3.6.1v-7.5c-4.6 0-9.8 1.4-12 4.1M102 33c0 5.2-3 7.6-7 7.6q-6 .1-6-6.8V19h-8.8v16c0 8.7 5.3 12.7 12.8 12.7q5.7 0 9.4-3.8l.6 3.3h7.7V19.1h-8.8zm50.6-14.3a14 14 0 0 0-10.8 4.6c-2.1-3.1-5.7-4.6-9.9-4.6q-6 0-9.4 3.6l-.6-3.2h-7.8v28.1h8.7v-14c0-5.1 2.8-7.5 6.6-7.5q5.6-.1 5.7 6.7v14.8h8.8v-14c0-5.1 2.7-7.5 6.6-7.5 3.5 0 5.7 2.1 5.7 6.7v14.8h8.7v-16c0-8.7-5.1-12.5-12.3-12.5m62.9 0c-9.6 0-16.5 6-16.5 14.5q0 1.5.3 3.2-.3.5-1 1.1a13 13 0 0 1-9.6 4.2c-7.3 0-12.5-4.8-12.5-11.8 0-6.9 5.2-11.7 12.5-11.7q5.7 0 9.6 4l5.8-5a21 21 0 0 0-15.8-6.2C176 11 167 18.9 167 30s9 18.9 21.2 18.9q9.6-.1 15.2-5.6 4.6 4.3 12.1 4.4c9.6 0 16.5-6 16.5-14.5s-7-14.5-16.5-14.5m0 22.3c-4.4 0-7.7-3-7.7-7.8 0-5 3.3-7.8 7.7-7.8s7.7 2.9 7.7 7.8c0 4.8-3.3 7.8-7.7 7.8"/><path d="M44 11.2h-8.7v8.5h-4V26h4v9.7c0 6.7 5.1 12 12.2 12l6.8-.1v-6.4c-6 0-10.3-.6-10.3-6.4V26h10.3v-6.3H44z"/></symbol><use xlink:href="#sprite-logo" width="232" height="60" y="347"/><symbol fill="currentColor" id="sprite-moon" viewBox="0 0 26 26"><path fill="inherit" d="M10.1 2.4q.2-.4-.3-.4a11.3 11.3 0 1 0 11 19q.2-.3-.2-.4c-10.3.3-15.8-9.7-10.5-18.2M17 5q.2-.3.5 0l.4 1.3.3.2h1.3q.5.1.2.5l-1 .8q-.2 0-.2.3l.4 1.2q0 .5-.4.4l-1.1-.8h-.3l-1.1.8q-.4.1-.4-.4l.4-1.2-.1-.3-1.1-.8a.3.3 0 0 1 .2-.5h1.3l.3-.2zm5.6 3.7q0-.3.3 0l.2.6h.7q.2 0 0 .3l-.4.4v.1l.1.6q0 .2-.2.2l-.5-.4h-.1l-.5.4q-.2 0-.2-.2l.2-.6V10l-.5-.4v-.2h.6l.2-.1z"/></symbol><use xlink:href="#sprite-moon" width="26" height="26" y="407"/><symbol fill="currentColor" id="sprite-phone" viewBox="0 0 40 40"><path fill="inherit" d="M33 26.5v3.9a2.6 2.6 0 0 1-2.9 2.6 26 26 0 0 1-19-11.8A26 26 0 0 1 7 9.8 2.6 2.6 0 0 1 9.5 7h4A3 3 0 0 1 16 9.2q.3 2 1 3.7a3 3 0 0 1-.6 2.8l-1.7 1.6q2.9 5 7.9 7.8l1.6-1.6a3 3 0 0 1 2.8-.6q1.8.6 3.7 1a2.6 2.6 0 0 1 2.2 2.6"/><path stroke="inherit" stroke-linecap="round" stroke-linejoin="round" stroke-width="2" d="M21.6 8a12 12 0 0 1 10.5 10.4m-10.5-5.1a7 7 0 0 1 5.2 5.2"/></symbol><use xlink:href="#sprite-phone" width="40" height="40" y="433"/><symbol fill="currentColor" id="sprite-search" viewBox="0 0 32 32"><path fill="inherit" fill-rule="evenodd" d="M14.1 5a9.1 9.1 0 1 0 0 18.2 9.1 9.1 0 0 0 0-18.2M3 14.1a11.1 11.1 0 1 1 19.6 7.2l5.8 6.3-1.5 1.3-5.7-6.2A11.1 11.1 0 0 1 3 14" clip-rule="evenodd"/></symbol><use xlink:href="#sprite-search" width="32" height="32" y="473"/><symbol fill="currentColor" id="sprite-slider-arrow-left" viewBox="0 0 19 19"><path fill="inherit" d="M10.2 18.7q-.5.6-1.2 0L.3 10.1A1 1 0 0 1 .3 9L8.9.3q.7-.6 1.3 0 .5.5 0 1.2L3 8.7l15-.1q.8 0 .9.9 0 .7-.9.8H3l7.2 7.2q.6.7 0 1.2"/></symbol><use xlink:href="#sprite-slider-arrow-left" width="19" height="19" y="505"/><symbol fill="currentColor" id="sprite-slider-arrow-right" viewBox="0 0 19 19"><path fill="inherit" d="M8.7 18.7q.7.6 1.3 0l8.7-8.6q.6-.5 0-1.2L10 .3a1 1 0 0 0-1.2 0q-.5.5 0 1.2L16 8.7 1 8.6q-.8 0-.9.9 0 .7.9.8h15l-7.3 7.2q-.5.7 0 1.2"/></symbol><use xlink:href="#sprite-slider-arrow-right" width="19" height="19" y="524"/><symbol fill="currentColor" id="sprite-sun" viewBox="0 0 26 26"><g fill="inherit" clip-path="url(#a)"><path d="M13.4 0q1.5 1.5 1 3.7l-.2 1q-1.4-.1-2.7.2-.1-1.5 1-2.3.7-.6.8-1.6zM26 13.4a3 3 0 0 1-1.7 1q-1.5.2-3-.2.1-1.4-.2-2.7a3 3 0 0 1 2.3 1q.8 1 2.3.9zM13 6.5a6.5 6.5 0 1 1 0 13 6.5 6.5 0 0 1 0-13M6.2 8.3q-1-.9-1-2.1.2-1.5-1-2.5l-.1-.1H5q.9.2 1.6 1 .8.7 1.4 1.8-1.2.7-1.8 1.9M19.6 8a5 5 0 0 0-1.9-1.8 3 3 0 0 1 2.2-1q1 .3 1.8-.4l.7-.7v1q-.3.9-1 1.5zM18 19.6q1.1-.6 1.8-1.9 1 1 1 2-.2 1.7 1 2.7h-1q-.9-.3-1.4-1-.9-.6-1.4-1.8M3.6 22q-.2-.8.1-1.5l.9-1.2q.7-.8 1.7-1.3.7 1.1 2 1.8-.9 1-2.1 1-1.5-.2-2.5 1zM0 12.6q.7-.7 1.5-1 1.7-.2 3.3.2-.3 1.4 0 2.7a3 3 0 0 1-2.2-1q-.6-.8-1.7-.8zm11.8 8.6q1.5.3 2.6 0a3 3 0 0 1-.9 2.2q-.8.6-.9 1.7v.9l-.5-.5a3 3 0 0 1-.6-1.5q0-1.5.3-2.8"/></g><defs><clipPath id="a"><path fill="#fff" d="M0 0h26v26H0z"/></clipPath></defs></symbol><use xlink:href="#sprite-sun" width="26" height="26" y="543"/><symbol fill="currentColor" id="sprite-telegram" viewBox="0 0 26 26"><path fill="inherit" fill-rule="evenodd" d="M3.3 11.8q8-3.6 10.9-4.7C19.3 5 20.4 4.6 21 4.6q.4 0 .7.2l.3.5V6a225 225 0 0 1-2 13.5q-.5 2-1.3 2c-1 0-1.9-.8-3-1.5l-4-2.8c-1.9-1.2-.7-1.9.3-3 .3-.3 5-4.6 5.2-5l-.1-.4h-.4q-.3 0-7.8 5.2-1.2.8-2 .8c-.7 0-2-.4-3-.7q-1.8-.4-2-1.2.1-.6 1.4-1" clip-rule="evenodd"/></symbol><use xlink:href="#sprite-telegram" width="26" height="26" y="569"/><symbol fill="none" id="sprite-twitter" viewBox="0 0 24 24"><path fill="#000" fill-rule="evenodd" d="M1.8 1.8C0 3.5 0 6.3 0 12s0 8.5 1.8 10.2C3.5 24 6.3 24 12 24s8.5 0 10.2-1.8C24 20.5 24 17.7 24 12s0-8.5-1.8-10.2C20.5 0 17.7 0 12 0S3.5 0 1.8 1.8M18.2 6H16l-3.5 3.8-3-3.8H5l5.3 6.6-5 5.4h2.1l3.9-4.2 3.4 4.2H19l-5.5-7zm-1.7 10.8h-1.2L7.5 7.2h1.3z" clip-rule="evenodd"/></symbol><use xlink:href="#sprite-twitter" width="24" height="24" y="595"/></svg>