
<svg xmlns="http://www.w3.org/2000/svg" fill="currentColor" viewBox="0 0 232 60"><path fill="currentColor" d="M9.8 22c0-2.3 2-4.2 7.4-4.2q5.3 0 10.9 2.9l2.8-6.5A28 28 0 0 0 17.3 11C6.2 11 .8 16.2.8 22.4c0 13.6 22.7 9 22.7 15.8 0 2.2-2.1 3.9-7.5 3.9-4.7 0-9.6-1.6-13-3.8l-3 6.3C3.5 47.2 9.7 49 16 49c11.1 0 16.5-5.2 16.5-11.4 0-13.4-22.7-8.8-22.7-15.5M65.7 22.8v-3.7h-8.3v28.1H66V34c0-5.3 3.2-7.8 8-7.8l3.6.1v-7.5c-4.6 0-9.8 1.4-12 4.1M102 33c0 5.2-3 7.6-7 7.6q-6 .1-6-6.8V19h-8.8V35c0 8.7 5.3 12.7 12.8 12.7q5.7 0 9.4-3.8l.6 3.3h7.7V19.1h-8.8zM152.6 18.7a14 14 0 0 0-10.8 4.6c-2.1-3.1-5.7-4.6-9.9-4.6q-6 0-9.4 3.6l-.6-3.2h-7.8v28.1h8.7v-14c0-5.1 2.8-7.5 6.6-7.5q5.6-.1 5.7 6.7v14.8h8.8v-14c0-5.1 2.7-7.5 6.6-7.5 3.5 0 5.7 2.1 5.7 6.7v14.8h8.7v-16c0-8.7-5.1-12.5-12.3-12.5M215.5 18.7c-9.6 0-16.5 6-16.5 14.5q0 1.5.3 3.2-.3.5-1 1.1a13 13 0 0 1-9.6 4.2c-7.3 0-12.5-4.8-12.5-11.8 0-6.9 5.2-11.7 12.5-11.7q5.7 0 9.6 4l5.8-5a21 21 0 0 0-15.8-6.2C176 11 167 18.9 167 30s9 18.9 21.2 18.9q9.6-.1 15.2-5.6 4.6 4.3 12.1 4.4c9.6 0 16.5-6 16.5-14.5s-7-14.5-16.5-14.5m0 22.3c-4.4 0-7.7-3-7.7-7.8 0-5 3.3-7.8 7.7-7.8s7.7 2.9 7.7 7.8c0 4.8-3.3 7.8-7.7 7.8"/><path fill="currentColor" d="M44 11.2h-8.7v8.5h-4V26h4v9.7c0 6.7 5.1 12 12.2 12l6.8-.1v-6.4c-6 0-10.3-.6-10.3-6.4V26h10.3v-6.3H44z"/></svg>