			<svg xmlns="http://www.w3.org/2000/svg" fill="currentColor" viewBox="0 0 26 26">
				<g fill="inherit" clip-path="url(#a)">
					<path
						d="M13.4 0q1.5 1.5 1 3.7l-.2 1q-1.4-.1-2.7.2-.1-1.5 1-2.3.7-.6.8-1.6zM26 13.4a3 3 0 0 1-1.7 1q-1.5.2-3-.2.1-1.4-.2-2.7a3 3 0 0 1 2.3 1q.8 1 2.3.9zM13 6.5a6.5 6.5 0 1 1 0 13 6.5 6.5 0 0 1 0-13M6.2 8.3q-1-.9-1-2.1.2-1.5-1-2.5l-.1-.1H5q.9.2 1.6 1 .8.7 1.4 1.8-1.2.7-1.8 1.9M19.6 8a5 5 0 0 0-1.9-1.8 3 3 0 0 1 2.2-1q1 .3 1.8-.4l.7-.7v1q-.3.9-1 1.5zM18 19.6q1.1-.6 1.8-1.9 1 1 1 2-.2 1.7 1 2.7h-1q-.9-.3-1.4-1-.9-.6-1.4-1.8M3.6 22q-.2-.8.1-1.5l.9-1.2q.7-.8 1.7-1.3.7 1.1 2 1.8-.9 1-2.1 1-1.5-.2-2.5 1zM0 12.6q.7-.7 1.5-1 1.7-.2 3.3.2-.3 1.4 0 2.7a3 3 0 0 1-2.2-1q-.6-.8-1.7-.8zM11.8 21.2q1.5.3 2.6 0a3 3 0 0 1-.9 2.2q-.8.6-.9 1.7v.9l-.5-.5a3 3 0 0 1-.6-1.5q0-1.5.3-2.8" />
				</g>
				<defs>
					<clipPath id="a">
						<path fill="#fff" d="M0 0h26v26H0z" />
					</clipPath>
				</defs>
			</svg>