<svg xmlns="http://www.w3.org/2000/svg" fill="none" viewBox="0 0 690 113"><path fill="#c0db4d" d="M29 32.7c0-6.9 6.3-12.5 22.2-12.5 10.3 0 21.5 2.8 32.3 8.6l8.3-19.1A82 82 0 0 0 51.4 0c-33.1 0-49 15.4-49 34C2.3 74.3 70 60.3 70 80.7c0 6.7-6.5 11.6-22.4 11.6-14 0-28.6-4.6-38.5-11.3L0 100c10.3 7.4 29 12.6 47.4 12.6 33.2 0 49.4-15.6 49.4-33.8 0-40-67.7-26.1-67.7-46.2M195.5 35V24h-24.8v83.8h26V68.2c0-16 9.4-23.3 23.7-23.3 2 0 8.6.1 10.8.3V22.8c-13.8 0-29.4 4.2-35.7 12.3M303.2 65.4c0 15.5-8.7 22.6-20.7 22.6s-18-6.2-18-20.2V24h-26v47.3c0 25.8 15.8 37.6 38.2 37.6 11 0 21-3.9 27.8-11.2l1.8 10H329V24h-26zM454 22.8a41 41 0 0 0-32.3 13.7c-6.3-9.2-17-13.7-29.4-13.7a38 38 0 0 0-28.1 10.9l-1.6-9.7h-23.2v83.8h26v-42c0-15 8.1-22 19.6-22 10.8 0 17 6.2 17 19.8v44.2h25.9v-42c0-15 8.1-22 19.8-22 10.4 0 17 6.2 17 19.8v44.2h25.9v-48c0-25.5-15.3-37-36.6-37M641 22.8c-28.5 0-49.3 17.9-49.3 43.1q0 5 1 9.5-.9 1.5-2.8 3.5a38 38 0 0 1-28.7 12.3c-21.8 0-37.2-14.3-37.2-34.9s15.4-34.8 37.2-34.8q16.9 0 28.4 12l17.3-15A62 62 0 0 0 560 0c-36.3 0-63.2 23.5-63.2 56.3 0 32.9 27 56.4 63 56.4 18.6 0 34.3-5.8 45.2-16.5 8.8 8 21.4 12.8 36 12.8 28.5 0 49.1-17.9 49.1-43.1s-20.6-43.1-49-43.1m0 66.3a22 22 0 0 1-23-23.2 22 22 0 0 1 23-23.2c13 0 22.7 8.7 22.7 23.2S654 89.1 641 89.1"/><path fill="#c0db4d" d="M130.8.6H105V26H93v18.7h12v28.8c0 19.9 15.3 35.6 36.4 35.6l20.1-.2V89.7c-18 0-30.5-1.7-30.5-19V44.6h30.5V25.9H131z"/></svg>