<svg xmlns="http://www.w3.org/2000/svg" fill="none" viewBox="0 0 836 762"><g clip-path="url(#a)"><mask id="b" width="805" height="814" x="31" y="8" maskUnits="userSpaceOnUse" style="mask-type:alpha"><path fill="#c0db4d" d="M36.7 28.8a.7.7 0 1 1-1.4 0 .7.7 0 0 1 1.4 0M37.4 63.3a1.4 1.4 0 1 1-2.8 0 1.4 1.4 0 0 1 2.8 0M37.8 97.7a1.8 1.8 0 1 1-3.6 0 1.8 1.8 0 1 1 3.6 0M38 132.1a2 2 0 1 1-4 0 2 2 0 0 1 4 0M38.6 166.6a2.6 2.6 0 1 1-5.2 0 2.6 2.6 0 0 1 5.2 0M39 201a3 3 0 1 1-6 0 3 3 0 0 1 6 0M39.3 235.4a3.2 3.2 0 1 1-6.5 0 3.2 3.2 0 0 1 6.5 0M39.2 269.9a3.1 3.1 0 1 1-6.3 0 3.1 3.1 0 0 1 6.3 0M38.7 304.3a2.7 2.7 0 1 1-5.4 0 2.7 2.7 0 0 1 5.4 0M37.6 338.7a1.6 1.6 0 1 1-3.2 0 1.6 1.6 0 0 1 3.2 0M39.8 373.2a3.8 3.8 0 1 1-7.6 0 3.8 3.8 0 0 1 7.6 0M37.3 407.6a1.3 1.3 0 1 1-2.6 0 1.3 1.3 0 0 1 2.6 0M40 442a4 4 0 1 1-8 0 4 4 0 0 1 8 0M39.4 476.5a3.3 3.3 0 1 1-6.7 0 3.3 3.3 0 0 1 6.7 0M39 511a3 3 0 1 1-6 0 3 3 0 0 1 6 0M38.7 545.3a2.7 2.7 0 1 1-5.4 0 2.7 2.7 0 0 1 5.4 0M38 579.8a2 2 0 1 1-3.9 0 2 2 0 0 1 3.8 0M37.3 614.2a1.3 1.3 0 1 1-2.6 0 1.3 1.3 0 0 1 2.6 0M37 648.6a1 1 0 1 1-2 0 1 1 0 0 1 2 0M36.6 683a.6.6 0 1 1-1.2 0 .6.6 0 0 1 1.2 0M36.7 717.5q0 .6-.7.7a.7.7 0 1 1 .7-.7M36.8 752q-.1.6-.8.7a.8.8 0 1 1 .8-.8M71.1 11.6q0 .7-.7.7a.7.7 0 1 1 .7-.7M71.9 46a1.4 1.4 0 1 1-2.9 0 1.4 1.4 0 0 1 2.9 0M72.3 80.5a1.8 1.8 0 1 1-3.7 0 1.8 1.8 0 0 1 3.7 0M72.5 115a2 2 0 1 1-4 0 2 2 0 0 1 4 0M73 149.4a2.6 2.6 0 1 1-5.1 0 2.6 2.6 0 0 1 5.1 0M73.4 183.8a3 3 0 1 1-6 0 3 3 0 0 1 6 0M73.7 218.2a3.2 3.2 0 1 1-6.5 0 3.2 3.2 0 0 1 6.5 0M73.6 252.7a3.1 3.1 0 1 1-6.3 0 3.1 3.1 0 0 1 6.3 0M73.1 287a2.7 2.7 0 1 1-5.3.1 2.7 2.7 0 0 1 5.3 0M72 321.5a1.6 1.6 0 1 1-3.2 0 1.6 1.6 0 0 1 3.3 0M74.3 356a3.8 3.8 0 1 1-7.7 0 3.8 3.8 0 0 1 7.7 0M71.8 390.4a1.3 1.3 0 1 1-2.7 0 1.3 1.3 0 0 1 2.7 0M74.5 424.8a4 4 0 1 1-8 0 4 4 0 0 1 8 0M73.8 459.3a3.3 3.3 0 1 1-6.7 0 3.3 3.3 0 0 1 6.7 0M73.5 493.7a3 3 0 1 1-6.1 0 3 3 0 0 1 6.1 0M73.1 528.1a2.7 2.7 0 1 1-5.3 0 2.7 2.7 0 0 1 5.3 0M72.4 562.6a2 2 0 1 1-3.9 0 2 2 0 0 1 3.9 0M71.8 597a1.3 1.3 0 1 1-2.7 0 1.3 1.3 0 0 1 2.7 0M71.4 631.4q0 1-1 1a1 1 0 1 1 1-1M71 665.9a.6.6 0 1 1-1.1 0q0-.6.5-.6t.6.6M71.1 700.3q0 .6-.7.7a.7.7 0 1 1 0-1.4q.7 0 .7.7M71.2 734.7q0 .7-.8.8a.8.8 0 1 1 .8-.8M106.2 28.8a1.3 1.3 0 1 1-2.7 0 1.3 1.3 0 0 1 2.7 0M105.7 63.3a.9.9 0 0 1-1.7 0 .9.9 0 0 1 1.7 0M108 97.7a3 3 0 1 1-6.2 0 3 3 0 0 1 6.1 0M109.4 132.1a4.5 4.5 0 1 1-9 0 4.5 4.5 0 0 1 9 0M107.7 166.6a2.9 2.9 0 1 1-5.7 0 2.9 2.9 0 0 1 5.7 0M110 201a5.2 5.2 0 1 1-10.3 0 5.2 5.2 0 0 1 10.3 0M108.9 235.4a4 4 0 1 1-8 0 4 4 0 0 1 8 0M108.8 269.9a4 4 0 1 1-7.8 0 4 4 0 0 1 7.8 0M108.3 304.3a3.4 3.4 0 1 1-6.9 0 3.4 3.4 0 0 1 7 0M108.2 338.7a3.3 3.3 0 1 1-6.7 0 3.3 3.3 0 0 1 6.7 0M111.3 373.2a6.4 6.4 0 1 1-12.8 0 6.4 6.4 0 0 1 12.8 0M106.3 407.6a1.4 1.4 0 1 1-2.8 0 1.4 1.4 0 0 1 2.8 0M108.6 442a3.7 3.7 0 1 1-7.4 0 3.7 3.7 0 0 1 7.4 0M108.7 476.5a3.8 3.8 0 1 1-7.6 0 3.8 3.8 0 0 1 7.6 0M108.3 511a3.4 3.4 0 1 1-6.9 0 3.4 3.4 0 0 1 7 0M107.4 545.3a2.5 2.5 0 1 1-5 0 2.5 2.5 0 0 1 5 0M106.1 579.8a1.2 1.2 0 1 1-2.5 0 1.2 1.2 0 0 1 2.5 0M106.3 614.2a1.4 1.4 0 1 1-2.8 0 1.4 1.4 0 1 1 2.8 0M106.1 648.6a1.2 1.2 0 1 1-2.5 0 1.2 1.2 0 0 1 2.5 0M106.4 683a1.5 1.5 0 1 1-3 0 1.5 1.5 0 0 1 3 0M106.2 717.5a1.3 1.3 0 1 1-2.7 0 1.3 1.3 0 0 1 2.7 0M105.4 752q-.1.3-.5.4a.5.5 0 1 1 0-1q.4.1.5.5M141.8 11.6a2.5 2.5 0 1 1-5 0 2.5 2.5 0 0 1 5 0M141.8 46a2.5 2.5 0 1 1-5 0 2.5 2.5 0 0 1 5 0M142.3 80.5a3 3 0 1 1-6 0 3 3 0 0 1 6 0M141.7 115a2.4 2.4 0 1 1-4.8 0 2.4 2.4 0 0 1 4.8 0M142.2 149.4a2.9 2.9 0 1 1-5.7 0 2.9 2.9 0 0 1 5.7 0M142.4 183.8a3 3 0 1 1-6.1 0 3 3 0 0 1 6 0M142.5 218.2a3.1 3.1 0 1 1-6.3 0 3.1 3.1 0 0 1 6.3 0M141.4 252.7a2.1 2.1 0 1 1-4.2 0 2.1 2.1 0 0 1 4.2 0M141.6 287a2.3 2.3 0 1 1-4.6.1 2.3 2.3 0 0 1 4.6 0M143.1 321.5a3.8 3.8 0 1 1-7.6 0 3.8 3.8 0 0 1 7.6 0M142.7 356a3.4 3.4 0 1 1-6.8 0 3.4 3.4 0 0 1 6.8 0M142.7 390.4a3.3 3.3 0 1 1-6.7 0 3.3 3.3 0 0 1 6.7 0M143.1 424.8a3.8 3.8 0 1 1-7.6 0 3.8 3.8 0 0 1 7.6 0M143.1 459.3a3.8 3.8 0 1 1-7.6 0 3.8 3.8 0 0 1 7.6 0M141.7 493.7a2.4 2.4 0 1 1-4.8 0 2.4 2.4 0 0 1 4.8 0M141.3 528.1a2 2 0 1 1-4 0 2 2 0 0 1 4 0M143.8 562.6a4.5 4.5 0 1 1-9 0 4.5 4.5 0 0 1 9 0M142.7 597a3.4 3.4 0 1 1-6.8 0 3.4 3.4 0 0 1 6.8 0M142 631.4a2.8 2.8 0 1 1-5.5 0 2.8 2.8 0 0 1 5.6 0M141.8 665.9a2.5 2.5 0 1 1-5 0 2.5 2.5 0 0 1 5 0M140.3 700.3q-.1.9-1 1a1 1 0 1 1 1-1M139.8 734.7a.5.5 0 1 1-1 0q.1-.4.5-.5.5.1.5.5M176 28.8a2.3 2.3 0 1 1-4.5 0 2.3 2.3 0 0 1 4.5 0M176.6 63.3a2.9 2.9 0 1 1-5.7 0 2.9 2.9 0 0 1 5.7 0M176.8 97.7a3 3 0 1 1-6.1 0 3 3 0 0 1 6.1 0M175.9 132.1a2.1 2.1 0 1 1-4.3 0 2.1 2.1 0 0 1 4.3 0M177 166.6a3.3 3.3 0 1 1-6.6 0 3.3 3.3 0 0 1 6.7 0M176.8 201a3 3 0 1 1-6.1 0 3 3 0 0 1 6.1 0M177.2 235.4a3.4 3.4 0 1 1-6.9 0 3.4 3.4 0 0 1 6.9 0M175.5 269.9a1.7 1.7 0 1 1-3.5 0 1.7 1.7 0 0 1 3.5 0M177.3 304.3a3.5 3.5 0 1 1-7 0 3.5 3.5 0 0 1 7 0M180.2 338.7a6.5 6.5 0 1 1-13 0 6.5 6.5 0 0 1 13 0M177.3 373.2a3.5 3.5 0 1 1-7 0 3.5 3.5 0 0 1 7 0M177.4 407.6a3.6 3.6 0 1 1-7.3 0 3.6 3.6 0 0 1 7.3 0M177 442a3.2 3.2 0 1 1-6.5 0 3.2 3.2 0 0 1 6.5 0M176.9 476.5a3.1 3.1 0 1 1-6.3 0 3.1 3.1 0 0 1 6.3 0M176.5 511a2.8 2.8 0 1 1-5.5 0 2.8 2.8 0 0 1 5.5 0M179.2 545.3a5.4 5.4 0 1 1-10.9 0 5.4 5.4 0 0 1 10.9 0M178.6 579.8a4.9 4.9 0 1 1-9.7 0 4.9 4.9 0 0 1 9.7 0M179.6 614.2a5.8 5.8 0 1 1-11.7 0 5.8 5.8 0 0 1 11.7 0M176.4 648.6a2.7 2.7 0 1 1-5.3 0 2.7 2.7 0 0 1 5.3 0M175.4 683a1.6 1.6 0 1 1-3.3 0 1.6 1.6 0 0 1 3.3 0M174.8 717.5q-.1 1-1 1a1 1 0 1 1 1-1M174.1 752q0 .3-.4.3l-.3-.4q0-.3.3-.3.4 0 .4.3M210.2 11.6a2 2 0 1 1-4 0 2 2 0 0 1 4 0M210.8 46a2.6 2.6 0 1 1-5.2 0 2.6 2.6 0 0 1 5.2 0M211.4 80.5a3.2 3.2 0 1 1-6.5 0 3.2 3.2 0 0 1 6.5 0M210 115a1.8 1.8 0 1 1-3.6 0 1.8 1.8 0 0 1 3.6 0M211.7 149.4a3.5 3.5 0 1 1-7 0 3.5 3.5 0 0 1 7 0M211.8 183.8a3.6 3.6 0 1 1-7.2 0 3.6 3.6 0 0 1 7.2 0M210.6 218.2a2.4 2.4 0 1 1-4.8 0 2.4 2.4 0 0 1 4.8 0M212.5 252.7a4.3 4.3 0 1 1-8.6 0 4.3 4.3 0 0 1 8.6 0M208.2 291.8a4.7 4.7 0 1 1 0-9.4 4.7 4.7 0 0 1 0 9.4M213.5 321.5a5.4 5.4 0 1 1-10.7 0 5.4 5.4 0 0 1 10.7 0M213.2 356a5 5 0 1 1-10 0 5 5 0 0 1 10 0M213.5 390.4a5.4 5.4 0 1 1-10.7 0 5.4 5.4 0 0 1 10.7 0M213.4 424.8a5.3 5.3 0 1 1-10.5 0 5.3 5.3 0 0 1 10.5 0M211.8 459.3a3.6 3.6 0 1 1-7.2 0 3.6 3.6 0 0 1 7.2 0M216.5 493.7a8.3 8.3 0 1 1-16.6 0 8.3 8.3 0 0 1 16.6 0M216 528.1a7.7 7.7 0 1 1-15.5 0 7.7 7.7 0 0 1 15.4 0M215.1 562.6a7 7 0 1 1-13.9 0 7 7 0 0 1 14 0M213.3 597a5.2 5.2 0 1 1-10.3 0 5.2 5.2 0 0 1 10.3 0M211.5 631.4a3.3 3.3 0 1 1-6.7 0 3.3 3.3 0 0 1 6.7 0M209.9 665.9a1.7 1.7 0 1 1-3.4 0 1.7 1.7 0 0 1 3.4 0M209.5 700.3a1.3 1.3 0 1 1-2.7 0 1.3 1.3 0 0 1 2.7 0M208.8 734.7a.6.6 0 1 1-1.2 0 .6.6 0 0 1 1.2 0M244.6 28.8a2 2 0 1 1-4 0 2 2 0 0 1 4 0M246.6 63.3a4 4 0 1 1-8 0 4 4 0 0 1 8 0M243.9 97.7a1.2 1.2 0 1 1-2.5 0 1.2 1.2 0 0 1 2.5 0M245.9 132.1a3.2 3.2 0 1 1-6.5 0 3.2 3.2 0 0 1 6.5 0M247 166.6a4.3 4.3 0 1 1-8.7 0 4.3 4.3 0 0 1 8.6 0M246.8 201a4.2 4.2 0 1 1-8.4 0 4.2 4.2 0 0 1 8.4 0M246.6 235.4a4 4 0 1 1-8 0 4 4 0 0 1 8 0M245.6 269.9a3 3 0 1 1-6 0 3 3 0 0 1 6 0M249 304.3a6.3 6.3 0 1 1-12.7 0 6.3 6.3 0 0 1 12.6 0M251.3 338.7a8.7 8.7 0 1 1-17.4 0 8.7 8.7 0 0 1 17.4 0M247.5 373.2a4.9 4.9 0 1 1-9.8 0 4.9 4.9 0 0 1 9.8 0M249.4 407.6a6.8 6.8 0 1 1-13.6 0 6.8 6.8 0 0 1 13.6 0M247.5 442a4.9 4.9 0 1 1-9.8 0 4.9 4.9 0 0 1 9.8 0M250 476.5a7.4 7.4 0 1 1-14.7 0 7.4 7.4 0 0 1 14.7 0M251.3 511a8.7 8.7 0 1 1-17.4 0 8.7 8.7 0 0 1 17.4 0M251.6 545.3a9 9 0 1 1-18 0 9 9 0 0 1 18 0M247.9 579.8a5.3 5.3 0 1 1-10.5 0 5.3 5.3 0 0 1 10.5 0M249.8 614.2a7.2 7.2 0 1 1-14.3 0 7.2 7.2 0 0 1 14.3 0M246.5 648.6a4 4 0 1 1-7.8 0 4 4 0 0 1 7.8 0M244.4 683a1.8 1.8 0 1 1-3.6 0 1.8 1.8 0 0 1 3.6 0M243.9 717.5a1.2 1.2 0 1 1-2.5 0 1.2 1.2 0 0 1 2.5 0M243.6 752q-.1.8-1 .9a1 1 0 1 1 0-2q.9.1 1 1M278.5 11.6a1.4 1.4 0 1 1-2.9 0 1.4 1.4 0 0 1 2.9 0M281.2 46a4.1 4.1 0 1 1-8.3 0 4.1 4.1 0 0 1 8.3 0M280 80.5a3 3 0 1 1-6 0 3 3 0 0 1 6 0M287.4 115a10.3 10.3 0 1 1-20.7 0 10.3 10.3 0 0 1 20.7 0M282.7 149.4a5.6 5.6 0 1 1-11.3 0 5.6 5.6 0 0 1 11.3 0M282.7 183.8a5.6 5.6 0 1 1-11.3 0 5.6 5.6 0 0 1 11.3 0M282 218.2a5 5 0 1 1-10 0 5 5 0 0 1 10 0M282.6 252.7a5.5 5.5 0 1 1-11 0 5.5 5.5 0 0 1 11 0M279.7 287a2.7 2.7 0 1 1-5.3 0 2.7 2.7 0 0 1 5.3 0M284.7 321.5a7.6 7.6 0 1 1-15.3 0 7.6 7.6 0 0 1 15.3 0M284.3 356a7.3 7.3 0 1 1-14.5 0 7.3 7.3 0 0 1 14.5 0M280 390.4a2.9 2.9 0 1 1-5.8 0 2.9 2.9 0 0 1 5.7 0M280.8 424.8a3.7 3.7 0 1 1-7.5 0 3.7 3.7 0 0 1 7.5 0M284.5 459.3a7.4 7.4 0 1 1-14.9 0 7.4 7.4 0 0 1 14.9 0M286.8 493.7a9.7 9.7 0 1 1-19.5 0 9.7 9.7 0 0 1 19.5 0M285 528.1a8 8 0 1 1-16 0 8 8 0 0 1 16 0M281.5 562.6a4.5 4.5 0 1 1-9 0 4.5 4.5 0 0 1 9 0M283 597a6 6 0 1 1-12 0 6 6 0 0 1 12 0M281 631.4a4 4 0 1 1-7.9 0 4 4 0 0 1 7.9 0M281 665.9a4 4 0 1 1-7.9 0 4 4 0 0 1 7.9 0M278.4 700.3a1.3 1.3 0 1 1-2.7 0 1.3 1.3 0 0 1 2.7 0M278 734.7a.9.9 0 1 1-1.8 0 .9.9 0 0 1 1.7 0M312.1 28.8q0 .6-.6.7a.7.7 0 1 1 .6-.7M313.7 63.3a2.2 2.2 0 1 1-4.4 0 2.2 2.2 0 0 1 4.4 0M315.5 97.7a4 4 0 1 1-8 0 4 4 0 0 1 8 0M316.8 132.1a5.4 5.4 0 1 1-10.7 0 5.4 5.4 0 0 1 10.7 0M319.5 166.6a8 8 0 1 1-16 0 8 8 0 0 1 16 0M320 201a8.5 8.5 0 1 1-17 0 8.5 8.5 0 0 1 17 0M315.7 235.4a4.2 4.2 0 1 1-8.4 0 4.2 4.2 0 0 1 8.4 0M315.2 269.9a3.7 3.7 0 1 1-7.4 0 3.7 3.7 0 0 1 7.4 0M319 304.3a7.5 7.5 0 1 1-15 0 7.5 7.5 0 0 1 15 0M320.2 338.7a8.7 8.7 0 1 1-17.4 0 8.7 8.7 0 0 1 17.4 0M314.6 373.2a3.1 3.1 0 1 1-6.3 0 3.1 3.1 0 0 1 6.3 0M314 407.6a2.5 2.5 0 1 1-5 0 2.5 2.5 0 0 1 5 0M317.9 442a6.4 6.4 0 1 1-12.8 0 6.4 6.4 0 0 1 12.8 0M321.1 476.5a9.6 9.6 0 1 1-19.3 0 9.6 9.6 0 0 1 19.3 0M315.9 511a4.4 4.4 0 1 1-8.8 0 4.4 4.4 0 0 1 8.8 0M317 545.3a5.5 5.5 0 1 1-11 0 5.5 5.5 0 0 1 11 0M317.2 579.8a5.7 5.7 0 1 1-11.5 0 5.7 5.7 0 0 1 11.5 0M317.8 614.2a6.3 6.3 0 1 1-12.6 0 6.3 6.3 0 0 1 12.6 0M316.5 648.6a5 5 0 1 1-10 0 5 5 0 0 1 10 0M315.6 683a4.1 4.1 0 1 1-8.2 0 4.1 4.1 0 0 1 8.2 0M311.9 717.5q0 .4-.4.4a.4.4 0 1 1 0-.8q.3 0 .4.4M311.9 752a.4.4 0 0 1-.8 0q0-.4.4-.4.3 0 .4.3M347.7 11.6a1.8 1.8 0 1 1-3.6 0 1.8 1.8 0 0 1 3.6 0M351.2 46a5.2 5.2 0 1 1-10.5 0 5.2 5.2 0 0 1 10.5 0M350.5 80.5a4.6 4.6 0 1 1-9.2 0 4.6 4.6 0 0 1 9.2 0M355.2 115a9.3 9.3 0 1 1-18.5 0 9.3 9.3 0 0 1 18.5 0M355.7 149.4a9.7 9.7 0 1 1-19.5 0 9.7 9.7 0 0 1 19.5 0M356 183.8a10.1 10.1 0 1 1-20.2 0 10.1 10.1 0 0 1 20.2 0M350.3 218.2a4.4 4.4 0 1 1-8.8 0 4.4 4.4 0 0 1 8.8 0M352 252.7a6 6 0 1 1-12.1 0 6 6 0 0 1 12 0M354.9 287a9 9 0 1 1-18 0 9 9 0 0 1 18 0M354 321.5a8 8 0 1 1-16.1 0 8 8 0 0 1 16 0M352 356a6.1 6.1 0 1 1-12.2 0 6.1 6.1 0 0 1 12.2 0M354 390.4a8 8 0 1 1-16.1 0 8 8 0 0 1 16 0M357.3 424.8a11.4 11.4 0 1 1-22.8 0 11.4 11.4 0 0 1 22.8 0M354.5 459.3a8.6 8.6 0 1 1-17.2 0 8.6 8.6 0 0 1 17.2 0M347.3 493.7a1.4 1.4 0 1 1-2.8 0 1.4 1.4 0 0 1 2.8 0M352.4 528.1a6.5 6.5 0 1 1-13 0 6.5 6.5 0 0 1 13 0M354.4 562.6a8.5 8.5 0 1 1-17 0 8.5 8.5 0 0 1 17 0M352 597a6.1 6.1 0 1 1-12.2 0 6.1 6.1 0 0 1 12.2 0M347 631.4a1 1 0 1 1-2.1 0 1 1 0 0 1 2 0M346.6 665.9a.7.7 0 1 1-1.4 0 .7.7 0 0 1 1.4 0M346.3 700.3q0 .4-.4.4a.4.4 0 0 1-.4-.4.4.4 0 1 1 .8 0M346.4 734.7q0 .5-.5.5a1 1 0 0 1-.5-.5.5.5 0 1 1 1 0M384.3 28.8a4 4 0 1 1-7.9 0 4 4 0 0 1 7.9 0M385 63.3a4.7 4.7 0 1 1-9.3 0 4.7 4.7 0 0 1 9.3 0M388.8 97.7a8.4 8.4 0 1 1-16.9 0 8.4 8.4 0 0 1 16.9 0M384.7 132.1a4.4 4.4 0 1 1-8.8 0 4.4 4.4 0 0 1 8.8 0M390.7 166.6a10.3 10.3 0 1 1-20.7 0 10.3 10.3 0 0 1 20.7 0M392.8 201a12.4 12.4 0 1 1-24.9 0 12.4 12.4 0 0 1 24.9 0M386 235.4a5.7 5.7 0 1 1-11.4 0 5.7 5.7 0 0 1 11.5 0M386.7 269.9a6.3 6.3 0 1 1-12.7 0 6.3 6.3 0 0 1 12.6 0M390.8 304.3a10.4 10.4 0 1 1-20.9 0 10.4 10.4 0 0 1 20.9 0M390.5 338.7a10.1 10.1 0 1 1-20.3 0 10.1 10.1 0 0 1 20.3 0M386.8 373.2a6.5 6.5 0 1 1-13 0 6.5 6.5 0 0 1 13 0M387.7 407.6a7.4 7.4 0 1 1-14.7 0 7.4 7.4 0 0 1 14.7 0M386.3 442a6 6 0 1 1-11.9 0 6 6 0 0 1 11.9 0M387.4 476.5a7 7 0 1 1-14.1 0 7 7 0 0 1 14.1 0M386.3 511a6 6 0 1 1-11.9 0 6 6 0 0 1 11.9 0M390.5 545.3a10.1 10.1 0 1 1-20.3 0 10.1 10.1 0 0 1 20.3 0M388.4 579.8a8 8 0 1 1-16 0 8 8 0 0 1 16 0M386.7 614.2a6.4 6.4 0 1 1-12.8 0 6.4 6.4 0 0 1 12.8 0M382.5 648.6a2.2 2.2 0 0 1-4.4 0 2.2 2.2 0 0 1 4.4 0M381.6 683a1.2 1.2 0 1 1-2.5 0q.1-1 1.2-1.2 1.2.1 1.3 1.3M381.2 717.5a.9.9 0 1 1-1.7 0q.1-.8.8-.8.9 0 1 .8M381.4 752a1 1 0 1 1-2.1 0 1 1 0 0 1 2.1 0M417.6 11.6a2.8 2.8 0 1 1-5.6 0 2.8 2.8 0 0 1 5.6 0M420 46a5.2 5.2 0 1 1-10.4 0 5.2 5.2 0 0 1 10.3 0M419.6 80.5a4.8 4.8 0 1 1-9.6 0 4.8 4.8 0 0 1 9.6 0M418.4 115a3.6 3.6 0 1 1-7.2 0 3.6 3.6 0 0 1 7.2 0M416.9 149.4a2.1 2.1 0 1 1-4.2 0 2.1 2.1 0 0 1 4.2 0M424.7 183.8a10 10 0 1 1-19.9 0 10 10 0 0 1 20 0M416.9 218.2a2.1 2.1 0 1 1-4.2 0 2.1 2.1 0 0 1 4.2 0M422.5 252.7a7.7 7.7 0 1 1-15.5 0 7.7 7.7 0 0 1 15.5 0M414.8 298.8a11.7 11.7 0 1 1 0-23.5 11.7 11.7 0 0 1 0 23.5M425.4 321.5a10.6 10.6 0 1 1-21.2 0 10.6 10.6 0 0 1 21.2 0M422.7 356a8 8 0 1 1-15.9 0 8 8 0 0 1 15.9 0M424 390.4a9.3 9.3 0 1 1-18.5 0 9.3 9.3 0 0 1 18.5 0M424.6 424.8a9.8 9.8 0 1 1-19.7 0 9.8 9.8 0 0 1 19.7 0M424.9 459.3a10.1 10.1 0 1 1-20.2 0 10.1 10.1 0 0 1 20.2 0M422.8 493.7a8 8 0 1 1-16 0 8 8 0 0 1 16 0M422.2 528.1a7.4 7.4 0 1 1-14.9 0 7.4 7.4 0 0 1 15 0M422.2 562.6a7.5 7.5 0 1 1-14.9 0 7.5 7.5 0 0 1 15 0M419.3 597a4.5 4.5 0 1 1-9 0 4.5 4.5 0 0 1 9 0M415.8 631.4a1 1 0 1 1-2 0 1 1 0 0 1 2 0M415.4 665.9q0 .5-.6.6a1 1 0 0 1-.7-.6q0-.7.7-.7.5 0 .6.7M416.6 700.3a1.8 1.8 0 1 1-3.6 0 1.8 1.8 0 0 1 3.6 0M416.1 734.7a1.3 1.3 0 0 1-2.7 0q.1-1.2 1.4-1.3 1.2.1 1.3 1.3M453.3 28.8a4.1 4.1 0 1 1-8.2 0 4.1 4.1 0 0 1 8.2 0M452.8 63.3a3.6 3.6 0 1 1-7.2 0 3.6 3.6 0 0 1 7.2 0M454.4 97.7a5.2 5.2 0 1 1-10.3 0 5.2 5.2 0 0 1 10.3 0M449.3 132.1v.1h-.2zM449.6 166.6q0 .3-.4.4a.4.4 0 0 1-.4-.4.4.4 0 1 1 .8 0M451.8 201a2.6 2.6 0 1 1-5.2 0 2.6 2.6 0 0 1 5.2 0M449.9 235.4q0 .6-.7.7a1 1 0 0 1-.7-.7q0-.5.7-.6t.7.6M452.4 269.9a3.2 3.2 0 1 1-6.3 0 3.2 3.2 0 0 1 6.3 0M452.7 304.3a3.4 3.4 0 1 1-7 0 3.4 3.4 0 0 1 7 0M462.2 338.7a13 13 0 1 1-26 0 13 13 0 0 1 26 0M461.4 373.2a12.2 12.2 0 1 1-24.4 0 12.2 12.2 0 0 1 24.4 0M459.3 407.6a10.1 10.1 0 1 1-20.2 0 10.1 10.1 0 0 1 20.2 0M460.5 442a11.3 11.3 0 1 1-22.6 0 11.3 11.3 0 0 1 22.6 0M459.5 476.5a10.3 10.3 0 1 1-20.6 0 10.3 10.3 0 0 1 20.6 0M449.2 519.1a8.2 8.2 0 1 1 0-16.4 8.2 8.2 0 0 1 0 16.4M457.1 545.3a8 8 0 1 1-15.8 0 8 8 0 0 1 15.8 0M454 579.8a4.9 4.9 0 1 1-9.7 0 4.9 4.9 0 0 1 9.8 0M451.6 614.2a2.4 2.4 0 1 1-4.8 0 2.4 2.4 0 0 1 4.8 0M451.8 648.6a2.6 2.6 0 1 1-5.2 0 2.6 2.6 0 0 1 5.2 0M451 683a1.7 1.7 0 1 1-3.5 0 1.7 1.7 0 0 1 3.4 0M451.1 717.5a2 2 0 1 1-3.8 0 2 2 0 0 1 3.8 0M449.8 752q0 .5-.6.5a1 1 0 0 1-.6-.6q0-.5.6-.5t.6.5M483.8 11.6q0 .2-.2.2l-.1-.2.1-.2q.2 0 .2.2M484.5 46a.9.9 0 0 1-1.7 0 .9.9 0 0 1 1.7 0M485.3 80.5a1.6 1.6 0 1 1-3.3 0 1.6 1.6 0 0 1 3.3 0M486.7 115a3 3 0 1 1-6.1 0 3 3 0 0 1 6.1 0M484.6 149.4a1 1 0 1 1-2 0 1 1 0 0 1 2 0M492 183.8a8.3 8.3 0 1 1-16.7 0 8.3 8.3 0 0 1 16.7 0M489.4 218.2a5.7 5.7 0 1 1-11.5 0 5.7 5.7 0 0 1 11.5 0M484.2 252.7a.6.6 0 1 1-1.1 0 .6.6 0 0 1 1.1 0M488.7 287a5 5 0 1 1-10.1 0 5 5 0 0 1 10.1 0M495.2 321.5a11.6 11.6 0 1 1-23.1 0 11.6 11.6 0 0 1 23.1 0M488.8 356a5.2 5.2 0 1 1-10.3 0 5.2 5.2 0 0 1 10.3 0M489.6 390.4a6 6 0 1 1-11.9 0 6 6 0 0 1 11.9 0M493.2 424.8a9.5 9.5 0 1 1-19.1 0 9.5 9.5 0 0 1 19 0M491.5 459.3a7.8 7.8 0 1 1-15.7 0 7.8 7.8 0 0 1 15.7 0M488.4 493.7a4.8 4.8 0 1 1-9.5 0 4.8 4.8 0 0 1 9.5 0M489.3 528.1a5.6 5.6 0 1 1-11.3 0 5.6 5.6 0 0 1 11.3 0M490.9 562.6a7.3 7.3 0 1 1-14.5 0 7.3 7.3 0 0 1 14.5 0M488.5 597a4.9 4.9 0 1 1-9.7 0 4.9 4.9 0 0 1 9.7 0M486.9 631.4a3.2 3.2 0 1 1-6.5 0 3.2 3.2 0 0 1 6.5 0M485.2 665.9a1.5 1.5 0 1 1-3 0 1.5 1.5 0 0 1 3 0M484.3 700.3q0 .6-.7.7a1 1 0 0 1-.6-.7.7.7 0 1 1 1.3 0M484.5 734.7a.9.9 0 0 1-1.7 0 .9.9 0 0 1 1.7 0M518.8 28.8q0 .8-.7.8a1 1 0 0 1-.8-.8.8.8 0 0 1 1.5 0M519.1 63.3a1 1 0 1 1-2 0 1 1 0 0 1 2 0M520.2 97.7a2.1 2.1 0 1 1-4.2 0 2.1 2.1 0 0 1 4.2 0M518.6 132.1a.5.5 0 1 1-1 0 .5.5 0 1 1 1 0M520 166.6a2 2 0 1 1-4 0 2 2 0 0 1 4 0M521 201a3 3 0 1 1-5.9 0 3 3 0 0 1 6 0M520.4 235.4a2.3 2.3 0 1 1-4.6 0 2.3 2.3 0 0 1 4.6 0M520.7 269.9a2.6 2.6 0 1 1-5.2 0 2.6 2.6 0 0 1 5.2 0M530 304.3a11.8 11.8 0 1 1-23.8 0 11.8 11.8 0 0 1 23.7 0M518.4 338.7a.3.3 0 1 1-.6 0q0-.2.3-.2t.3.2M521.8 373.2a3.7 3.7 0 1 1-7.4 0 3.7 3.7 0 0 1 7.4 0M520 407.6a2 2 0 1 1-4 0 2 2 0 0 1 4 0M523.2 442a5.1 5.1 0 1 1-10.3 0 5.1 5.1 0 0 1 10.3 0M521.5 476.5a3.4 3.4 0 1 1-6.9 0 3.4 3.4 0 0 1 7 0M520.5 511a2.4 2.4 0 1 1-4.8 0 2.4 2.4 0 0 1 4.8 0M523.1 545.3a5 5 0 1 1-10 0 5 5 0 0 1 10 0M524.2 579.8a6.1 6.1 0 1 1-12.2 0 6.1 6.1 0 0 1 12.2 0M526.8 614.2a8.7 8.7 0 1 1-17.4 0 8.7 8.7 0 0 1 17.4 0M523.6 648.6a5.5 5.5 0 1 1-11 0 5.5 5.5 0 0 1 11 0M521 683a3 3 0 1 1-5.9 0 3 3 0 0 1 6 0M519 717.5a1 1 0 1 1-1.9 0q.1-.9 1-1 .9.1 1 1M519 752q0 .8-1 .9a1 1 0 1 1 0-2q1 .1 1 1M553.2 11.6a.7.7 0 1 1-1.4 0 .7.7 0 0 1 1.4 0M553.6 46q-.1 1-1 1.1a1 1 0 1 1 1-1M553.8 80.5a1.2 1.2 0 1 1-2.5 0 1.2 1.2 0 0 1 2.5 0M553.6 115q-.1.9-1 1a1 1 0 1 1 1-1M553.2 149.4a.7.7 0 1 1-1.4 0 .7.7 0 0 1 1.4 0M554.7 183.8a2.2 2.2 0 1 1-4.4 0 2.2 2.2 0 0 1 4.4 0M552.9 218.2q0 .3-.4.4a.4.4 0 0 1-.4-.4q0-.3.4-.4.4 0 .4.4M556 252.7a3.4 3.4 0 1 1-7 0 3.4 3.4 0 0 1 7 0M560.5 287a8 8 0 1 1-16 .1 8 8 0 0 1 16 0M561.4 321.5a8.9 8.9 0 1 1-17.8 0 8.9 8.9 0 0 1 17.8 0M558.5 356a6 6 0 1 1-12 0 6 6 0 0 1 12 0M556.2 390.4a3.7 3.7 0 1 1-7.4 0 3.7 3.7 0 0 1 7.4 0M555.8 424.8a3.2 3.2 0 1 1-6.5 0 3.2 3.2 0 0 1 6.5 0M553.4 459.3q0 .7-.9.8a.9.9 0 1 1 .9-.9M552.6 493.7h-.2l.1-.1zM555 528.1a2.6 2.6 0 1 1-5 0 2.6 2.6 0 0 1 5 0M558 562.6a5.4 5.4 0 1 1-11 0 5.4 5.4 0 0 1 11 0M557.8 597a5.3 5.3 0 1 1-10.5 0 5.3 5.3 0 0 1 10.5 0M556.9 631.4a4.4 4.4 0 1 1-8.8 0 4.4 4.4 0 0 1 8.8 0M556 665.9a3.4 3.4 0 1 1-7 0 3.4 3.4 0 0 1 7 0M554.5 700.3a2 2 0 1 1-4 0 2 2 0 0 1 4 0M552.6 734.7v.1h-.2zM588.2 28.8a1.2 1.2 0 1 1-2.5 0 1.2 1.2 0 0 1 2.5 0M587.6 63.3a.7.7 0 1 1-1.3 0 .7.7 0 0 1 1.3 0M589.3 97.7a2.4 2.4 0 1 1-4.7 0 2.4 2.4 0 0 1 4.7 0M594 132.1a7 7 0 1 1-14 0 7 7 0 0 1 14 0M587.3 166.6q0 .3-.4.4l-.3-.4q0-.3.3-.4.4 0 .4.4M591.1 201a4.2 4.2 0 1 1-8.4 0 4.2 4.2 0 0 1 8.4 0M592.2 235.4a5.3 5.3 0 1 1-10.5 0 5.3 5.3 0 0 1 10.5 0M590.4 269.9a3.4 3.4 0 1 1-6.9 0 3.4 3.4 0 0 1 6.9 0M598.4 304.3a11.5 11.5 0 1 1-23 0 11.5 11.5 0 0 1 23 0M596 338.7a9 9 0 1 1-18.1 0 9 9 0 0 1 18.1 0M592.2 373.2a5.2 5.2 0 1 1-10.5 0 5.2 5.2 0 0 1 10.5 0M592.8 407.6a5.8 5.8 0 1 1-11.7 0 5.8 5.8 0 0 1 11.7 0M596.4 442a9.5 9.5 0 1 1-19 0 9.5 9.5 0 0 1 19 0M587 484.5a8 8 0 1 1 0-16 8 8 0 0 1 0 16M590.9 511a4 4 0 1 1-7.9 0 4 4 0 0 1 7.9 0M589.6 545.3a2.7 2.7 0 1 1-5.3 0 2.7 2.7 0 0 1 5.3 0M590 579.8a3 3 0 1 1-6.1 0 3 3 0 0 1 6.1 0M587.1 614.2q0 .2-.2.2l-.1-.2.1-.2q.3 0 .2.2M589.1 648.6a2.2 2.2 0 0 1-4.4 0 2.2 2.2 0 0 1 4.4 0M589.8 683a2.9 2.9 0 1 1-5.7 0 2.9 2.9 0 0 1 5.7 0M589.3 717.5a2.4 2.4 0 1 1-4.7 0 2.4 2.4 0 0 1 4.7 0M589.4 752a2.5 2.5 0 1 1-5 0 2.5 2.5 0 0 1 5 0M623.4 11.6a2 2 0 1 1-4 0 2 2 0 0 1 4 0M624.1 46a2.8 2.8 0 1 1-5.5 0 2.8 2.8 0 0 1 5.5 0M626.4 80.5a5 5 0 1 1-10 0 5 5 0 0 1 10 0M626.7 115a5.3 5.3 0 1 1-10.7 0 5.3 5.3 0 0 1 10.7 0M623.6 149.4a2.2 2.2 0 1 1-4.4 0 2.2 2.2 0 0 1 4.4 0M627 183.8a5.6 5.6 0 1 1-11.3 0 5.6 5.6 0 0 1 11.3 0M626.8 218.2a5.4 5.4 0 1 1-10.9 0 5.4 5.4 0 0 1 11 0M630.8 252.7a9.5 9.5 0 1 1-18.9 0 9.5 9.5 0 0 1 19 0M632.8 287a11.5 11.5 0 1 1-22.9 0 11.5 11.5 0 0 1 23 0M633.3 321.5a12 12 0 1 1-23.9 0 12 12 0 0 1 24 0M629.6 356a8.2 8.2 0 1 1-16.4 0 8.2 8.2 0 0 1 16.4 0M627.4 390.4a6 6 0 1 1-12 0 6 6 0 0 1 12 0M630.3 424.8a8.9 8.9 0 1 1-17.8 0 8.9 8.9 0 0 1 17.8 0M628 459.3a6.6 6.6 0 1 1-13.2 0 6.6 6.6 0 0 1 13.2 0M627.9 493.7a6.5 6.5 0 1 1-13 0 6.5 6.5 0 0 1 13 0M625.9 528.1a4.5 4.5 0 1 1-9 0 4.5 4.5 0 0 1 9 0M624.1 562.6a2.8 2.8 0 1 1-5.5 0 2.8 2.8 0 0 1 5.5 0M621.5 597h-.2v-.1zM623.3 631.4a2 2 0 1 1-3.8 0 2 2 0 0 1 3.8 0M621.5 700.3h-.2v-.1zM660 28.8a4.2 4.2 0 1 1-8.4 0 4.2 4.2 0 0 1 8.4 0M660.2 63.3a4.4 4.4 0 1 1-8.8 0 4.4 4.4 0 0 1 8.8 0M661.5 97.7a5.7 5.7 0 1 1-11.4 0 5.7 5.7 0 0 1 11.4 0M665.6 132.1a9.7 9.7 0 1 1-19.5 0 9.7 9.7 0 0 1 19.5 0M662.8 166.6a7 7 0 1 1-14 0 7 7 0 0 1 14 0M660.1 201a4.3 4.3 0 1 1-8.6 0 4.3 4.3 0 0 1 8.6 0M661.4 235.4a5.6 5.6 0 1 1-11.2 0 5.6 5.6 0 0 1 11.2 0M663.7 269.9a8 8 0 1 1-15.8 0 8 8 0 0 1 15.8 0M662.1 304.3a6.3 6.3 0 1 1-12.6 0 6.3 6.3 0 0 1 12.6 0M666 338.7a10.2 10.2 0 1 1-20.4 0 10.2 10.2 0 0 1 20.4 0M664.6 373.2a8.8 8.8 0 1 1-17.6 0 8.8 8.8 0 0 1 17.6 0M660.7 407.6a4.9 4.9 0 1 1-9.8 0 4.9 4.9 0 0 1 9.8 0M662.3 442a6.5 6.5 0 1 1-13 0 6.5 6.5 0 0 1 13 0M663.8 476.5a8 8 0 1 1-16 0 8 8 0 0 1 16 0M662.1 511a6.3 6.3 0 1 1-12.6 0 6.3 6.3 0 0 1 12.6 0M658.5 545.3a2.7 2.7 0 1 1-5.4 0 2.7 2.7 0 0 1 5.4 0M656.3 579.8q0 .4-.5.5a.5.5 0 0 1 0-1q.5 0 .5.5M656.1 614.2q0 .3-.3.3l-.3-.3a.3.3 0 0 1 .6 0M657.4 648.6a1.6 1.6 0 1 1-3.2 0 1.6 1.6 0 0 1 3.2 0M656.5 717.5a.7.7 0 1 1-1.4 0q0-.6.7-.7t.7.7M656 752h-.2v-.1zM699 46a8.7 8.7 0 1 1-17.4 0 8.7 8.7 0 0 1 17.3 0M698.8 80.5a8.6 8.6 0 1 1-17.1 0 8.6 8.6 0 0 1 17.1 0M696.6 115a6.4 6.4 0 1 1-12.8 0 6.4 6.4 0 0 1 12.8 0M696.5 149.4a6.3 6.3 0 1 1-12.6 0 6.3 6.3 0 0 1 12.6 0M695.1 183.8a4.9 4.9 0 1 1-9.7 0 4.9 4.9 0 0 1 9.7 0M695.2 218.2a5 5 0 1 1-10 0 5 5 0 0 1 10 0M699.7 252.7a9.5 9.5 0 1 1-19 0 9.5 9.5 0 0 1 19 0M699.7 287a9.5 9.5 0 1 1-19 .1 9.5 9.5 0 0 1 19 0M699.3 321.5a9 9 0 1 1-18.1 0 9 9 0 0 1 18.1 0M698.2 356a8 8 0 1 1-15.9 0 8 8 0 0 1 15.9 0M695.7 390.4a5.4 5.4 0 1 1-10.9 0 5.4 5.4 0 0 1 10.9 0M698.3 424.8a8 8 0 1 1-16 0 8 8 0 0 1 16 0M701.5 459.3a11.3 11.3 0 1 1-22.5 0 11.3 11.3 0 0 1 22.5 0M699.6 493.7a9.4 9.4 0 1 1-18.7 0 9.4 9.4 0 0 1 18.7 0M695.1 528.1a4.9 4.9 0 1 1-9.7 0 4.9 4.9 0 0 1 9.7 0M692.3 562.6a2 2 0 1 1-4 0 2 2 0 0 1 4 0M691.1 597a.9.9 0 1 1-1.7 0 .9.9 0 0 1 1.7 0M690.4 631.4q0 .2-.2.2l-.1-.2.1-.2q.3 0 .2.2M731.4 28.8a6.7 6.7 0 1 1-13.4 0 6.7 6.7 0 0 1 13.4 0M734.3 63.3a9.6 9.6 0 1 1-19.3 0 9.6 9.6 0 0 1 19.3 0M734.8 97.7a10.1 10.1 0 1 1-20.2 0 10.1 10.1 0 0 1 20.2 0M734.9 132.1a10.2 10.2 0 1 1-20.4 0 10.2 10.2 0 0 1 20.4 0M732.4 166.6a7.7 7.7 0 1 1-15.5 0 7.7 7.7 0 0 1 15.5 0M732.3 201a7.6 7.6 0 1 1-15.3 0 7.6 7.6 0 0 1 15.3 0M733.8 235.4a9 9 0 1 1-18.2 0 9 9 0 0 1 18.1 0M735.4 269.9a10.7 10.7 0 1 1-21.4 0 10.7 10.7 0 0 1 21.4 0M733.8 304.3a9 9 0 1 1-18.2 0 9 9 0 0 1 18.1 0M731.6 338.7a6.9 6.9 0 1 1-13.8 0 6.9 6.9 0 0 1 13.8 0M731 373.2a6.3 6.3 0 1 1-12.6 0 6.3 6.3 0 0 1 12.6 0M732.2 407.6a7.5 7.5 0 1 1-15 0 7.5 7.5 0 0 1 15 0M730 442a5.3 5.3 0 1 1-10.6 0 5.3 5.3 0 0 1 10.5 0M734.4 476.5a9.7 9.7 0 1 1-19.5 0 9.7 9.7 0 0 1 19.5 0M733.6 511a8.9 8.9 0 1 1-17.8 0 8.9 8.9 0 0 1 17.8 0M729 545.3a4.3 4.3 0 1 1-8.6 0 4.3 4.3 0 0 1 8.6 0M727.5 579.8a2.9 2.9 0 1 1-5.7 0 2.9 2.9 0 0 1 5.7 0M726.3 614.2a1.6 1.6 0 1 1-3.2 0 1.6 1.6 0 0 1 3.2 0M725.4 648.6a.8.8 0 1 1-1.5 0 .8.8 0 0 1 1.5 0M725.2 683q-.1.5-.5.6a.5.5 0 0 1 0-1q.4 0 .5.5M767.1 46a8 8 0 1 1-16 0 8 8 0 0 1 16 0M767.2 80.5a8.1 8.1 0 1 1-16.2 0 8.1 8.1 0 0 1 16.2 0M767.4 115a8.3 8.3 0 1 1-16.6 0 8.3 8.3 0 0 1 16.6 0M769.4 149.4a10.3 10.3 0 1 1-20.6 0 10.3 10.3 0 0 1 20.6 0M768 183.8a9 9 0 1 1-17.9 0 9 9 0 0 1 18 0M762.6 218.2a3.5 3.5 0 1 1-7 0 3.5 3.5 0 0 1 7 0M766.6 252.7a7.4 7.4 0 1 1-15 0 7.4 7.4 0 0 1 15 0M766.8 287a7.7 7.7 0 1 1-15.4 0 7.7 7.7 0 0 1 15.4 0M763.1 321.5a4 4 0 1 1-8 0 4 4 0 0 1 8 0M765.6 356a6.5 6.5 0 1 1-13 0 6.5 6.5 0 0 1 13 0M761.4 390.4a2.3 2.3 0 1 1-4.6 0 2.3 2.3 0 0 1 4.6 0M762.4 424.8a3.2 3.2 0 1 1-6.5 0 3.2 3.2 0 0 1 6.5 0M761.6 459.3a2.5 2.5 0 1 1-5 0 2.5 2.5 0 0 1 5 0M764 493.7a4.9 4.9 0 1 1-9.8 0 4.9 4.9 0 0 1 9.8 0M762.4 528.1a3.3 3.3 0 1 1-6.5 0 3.3 3.3 0 0 1 6.5 0M762.8 562.6a3.7 3.7 0 1 1-7.4 0 3.7 3.7 0 0 1 7.4 0M761.6 597a2.5 2.5 0 1 1-5 0 2.5 2.5 0 0 1 5 0M759.6 631.4q0 .5-.5.5a.5.5 0 1 1 .5-.5M759.6 665.9q0 .4-.5.4a.5.5 0 1 1 .5-.5M759.4 700.3q0 .3-.3.3l-.3-.3a.3.3 0 0 1 .6 0M799.5 28.8a6 6 0 1 1-11.9 0 6 6 0 0 1 11.9 0M800.9 63.3a7.4 7.4 0 1 1-14.7 0 7.4 7.4 0 0 1 14.7 0M798.7 97.7a5.2 5.2 0 1 1-10.3 0 5.2 5.2 0 0 1 10.3 0M800.8 132.1a7.3 7.3 0 1 1-14.5 0 7.3 7.3 0 0 1 14.5 0M801.5 166.6a8 8 0 1 1-15.9 0 8 8 0 0 1 15.9 0M803.5 201a10 10 0 1 1-19.9 0 10 10 0 0 1 19.9 0M796 235.4a2.4 2.4 0 1 1-4.8 0 2.4 2.4 0 0 1 4.7 0M800 269.9a6.4 6.4 0 1 1-12.9 0 6.4 6.4 0 0 1 12.8 0M799.5 304.3a6 6 0 1 1-11.9 0 6 6 0 0 1 11.9 0M795 338.7a1.4 1.4 0 1 1-2.9 0 1.4 1.4 0 0 1 2.9 0M795 373.2a1.5 1.5 0 1 1-3 0 1.5 1.5 0 0 1 3 0M795.3 407.6a1.7 1.7 0 1 1-3.5 0 1.7 1.7 0 0 1 3.5 0M794.8 442a1.2 1.2 0 1 1-2.5 0 1.2 1.2 0 0 1 2.5 0M794.7 476.5a1.1 1.1 0 1 1-2.3 0 1.1 1.1 0 0 1 2.3 0M797.2 511a3.6 3.6 0 1 1-7.3 0 3.6 3.6 0 0 1 7.3 0M795.8 545.3a2.3 2.3 0 1 1-4.5 0 2.3 2.3 0 0 1 4.5 0M794.3 579.8a.8.8 0 0 1-1.5 0q0-.7.7-.8.8.1.8.8M794 614.2q0 .4-.5.4a.4.4 0 1 1 .4-.4M794 648.6q0 .5-.5.5a.5.5 0 0 1 0-1q.5.1.5.5M793.8 683q0 .4-.3.4l-.2-.3q0-.3.2-.3t.3.3M793.6 717.5v.1h-.1zM793.6 752h-.1zM833.8 46a5.8 5.8 0 1 1-11.6 0 5.8 5.8 0 0 1 11.6 0M830.7 80.5a2.7 2.7 0 1 1-5.4 0 2.7 2.7 0 0 1 5.4 0M831.8 115a3.8 3.8 0 1 1-7.6 0 3.8 3.8 0 0 1 7.6 0M833.2 149.4a5.3 5.3 0 1 1-10.5 0 5.3 5.3 0 0 1 10.5 0M831.7 183.8a3.7 3.7 0 1 1-7.4 0 3.7 3.7 0 0 1 7.4 0M836 218.2a8 8 0 1 1-16 0 8 8 0 0 1 16 0M829.1 287a1.1 1.1 0 1 1-2.3.1 1.1 1.1 0 0 1 2.3 0M829.4 321.5a1.4 1.4 0 1 1-2.9 0 1.4 1.4 0 0 1 3 0M835.4 356a7.4 7.4 0 1 1-14.9 0 7.4 7.4 0 0 1 15 0M832 390.4a4 4 0 1 1-8 0 4 4 0 0 1 8 0M830.7 424.8a2.7 2.7 0 1 1-5.4 0 2.7 2.7 0 0 1 5.4 0M829.3 459.3a1.3 1.3 0 1 1-2.7 0 1.3 1.3 0 0 1 2.7 0M829.9 493.7a2 2 0 1 1-3.8 0 2 2 0 0 1 3.8 0M830.8 528.1a2.9 2.9 0 1 1-5.7 0 2.9 2.9 0 0 1 5.7 0M829.3 562.6a1.3 1.3 0 1 1-2.7 0 1.3 1.3 0 0 1 2.7 0M828.5 597q-.1.5-.5.5a.5.5 0 1 1 0-1q.4 0 .5.5M828.3 631.4a.3.3 0 1 1-.6 0 .3.3 0 0 1 .6 0M828 665.9h-.1v-.1z"/></mask><g mask="url(#b)"><path fill="url(#c)" d="M7-16h815v820H7z"/><path fill="url(#d)" fill-opacity=".8" d="M7-16h815v820H7z"/></g><path fill="#1c252d" d="M523.8 364.5s16.7 45 36.5 94.6a377 377 0 0 1 114.1 71.5L579.3 326l-38-28h-198L419 93l58.3 151 53.3-22.7L440.5 27h-43.2L263.6 318l31 46.5z"/><path fill="#c0db4d" d="M612 599a284 284 0 0 0-191.8-74.3 284 284 0 0 0-191.8 74.2L166 530.6a377 377 0 0 1 254.2-98.4c94.3 0 184.6 35 254.3 98.4z"/></g><defs><radialGradient id="c" cx="0" cy="0" r="1" gradientTransform="rotate(166 185.4 285)scale(387.2 247)" gradientUnits="userSpaceOnUse"><stop stop-color="#c0db4d"/><stop offset=".4" stop-color="#c6db70"/><stop offset=".8" stop-color="#d9d9d9"/><stop offset="1" stop-color="#ececec"/></radialGradient><radialGradient id="d" cx="0" cy="0" r="1" gradientTransform="matrix(155 -195 189.6 150.7 533 276)" gradientUnits="userSpaceOnUse"><stop stop-color="#1c252d"/><stop offset="1" stop-color="#1c252d" stop-opacity="0"/></radialGradient><clipPath id="a"><path fill="#fff" d="M0 0h836v762H0z"/></clipPath></defs></svg>