<svg width="366" height="214" viewBox="0 0 366 214" fill="none" xmlns="http://www.w3.org/2000/svg">
<g clip-path="url(#clip0_15987_621)">
<path d="M15.4222 142.077C15.4222 138.424 18.6857 135.442 27.1468 135.442C32.6078 135.442 38.5161 136.936 44.2469 140.003L48.6551 129.801C42.9244 126.398 34.9961 124.66 27.239 124.66C9.69812 124.66 1.23694 132.875 1.23694 142.741C1.23694 164.311 37.1081 156.847 37.1081 167.708C37.1081 171.275 33.6671 173.928 25.2059 173.928C17.804 173.928 10.0468 171.44 4.84906 167.872L0 177.996C5.46095 181.978 15.3367 184.716 25.1204 184.716C42.7467 184.716 51.3 176.416 51.3 166.714C51.3 145.394 15.4288 152.779 15.4288 142.077" fill="#C0DB4D"/>
<path d="M103.613 143.361V137.469H90.4805V182.097H104.232V161.027C104.232 152.483 109.258 148.587 116.838 148.587C117.897 148.587 121.397 148.666 122.549 148.751V136.805C115.232 136.805 106.969 139.043 103.62 143.361" fill="#C0DB4D"/>
<path d="M160.696 159.539C160.696 167.754 156.11 171.565 149.767 171.565C143.425 171.565 140.161 168.247 140.161 160.783V137.476H126.41V162.692C126.41 176.462 134.786 182.768 146.681 182.768C152.498 182.768 157.788 180.694 161.4 176.798L162.341 182.103H174.44V137.476H160.689V159.539H160.696Z" fill="#C0DB4D"/>
<path d="M240.644 136.805C233.506 136.805 227.334 139.543 223.544 144.104C220.195 139.214 214.557 136.805 207.944 136.805C201.858 136.805 196.575 138.799 193.049 142.617L192.187 137.469H179.916V182.097H193.667V159.704C193.667 151.74 197.983 148.008 204.069 148.008C209.8 148.008 213.057 151.325 213.057 158.546V182.103H226.808V159.711C226.808 151.746 231.13 148.014 237.295 148.014C242.849 148.014 246.283 151.332 246.283 158.552V182.11H260.034V156.564C260.034 142.959 251.922 136.818 240.644 136.818" fill="#C0DB4D"/>
<path d="M339.743 136.804C324.67 136.804 313.656 146.342 313.656 159.782C313.656 161.546 313.853 163.245 314.215 164.87C313.859 165.351 313.353 166.009 312.669 166.727C308.57 171.058 303.49 173.263 297.477 173.263C285.93 173.263 277.738 165.634 277.738 154.681C277.738 143.728 285.936 136.1 297.477 136.1C303.431 136.1 308.477 138.285 312.55 142.465L321.715 134.487C315.893 128.155 307.188 124.653 296.779 124.653C277.567 124.653 263.283 137.179 263.283 154.681C263.283 172.183 277.561 184.709 296.687 184.709C306.55 184.709 314.846 181.629 320.643 175.935C325.301 180.227 331.986 182.754 339.743 182.754C354.817 182.754 365.745 173.217 365.745 159.776C365.745 146.335 354.817 136.797 339.743 136.797M339.743 172.144C332.868 172.144 327.584 167.497 327.584 159.782C327.584 152.068 332.868 147.421 339.743 147.421C346.619 147.421 351.816 152.062 351.816 159.782C351.816 167.503 346.619 172.144 339.743 172.144Z" fill="#C0DB4D"/>
<path d="M69.3534 124.976H55.6089V138.462H49.2598V148.415H55.6089V163.764C55.6089 174.381 63.7148 182.761 74.9131 182.761C75.4986 182.761 84.9796 182.701 85.5586 182.662V172.459C76.0579 172.459 69.36 171.558 69.36 162.336V148.415H85.5586V138.462H69.36V124.976H69.3534Z" fill="#C0DB4D"/>
<path d="M83.243 203.646V204.607H80.1177V213.828H79.0979V204.607H75.9727V203.646H83.243Z" fill="white"/>
<path d="M92.698 210.991C92.698 211.781 92.4217 212.446 91.869 212.999C91.3164 213.552 90.6452 213.828 89.8623 213.828H85.4277V203.646H89.5267C90.2834 203.646 90.9216 203.922 91.4611 204.462C92.0006 205.001 92.2572 205.64 92.2572 206.384C92.2572 207.332 91.869 208.056 91.0663 208.549C92.0533 208.97 92.698 209.892 92.698 210.991ZM86.441 204.607V208.154H89.5267C90.007 208.154 90.4018 207.983 90.7374 207.647C91.0729 207.299 91.244 206.877 91.244 206.384C91.244 205.89 91.0663 205.482 90.7374 205.133C90.4018 204.784 90.0136 204.613 89.5267 204.613H86.441V204.607ZM89.8557 212.867C90.3623 212.867 90.79 212.689 91.1387 212.327C91.5006 211.965 91.6782 211.511 91.6782 210.985C91.6782 210.458 91.5006 210.024 91.1387 209.662C90.79 209.3 90.3689 209.109 89.8557 209.109H86.4344V212.861H89.8557V212.867Z" fill="white"/>
<path d="M96.1839 203.646H95.1641V213.828H96.1839V203.646Z" fill="white"/>
<path d="M105.785 213.829V205.535L100.113 213.829H99.2383V203.646H100.258V211.94L105.93 203.646H106.798V213.829H105.778H105.785ZM101.127 201.639H104.91V202.481H101.127V201.639Z" fill="white"/>
<path d="M115.233 212.867H120.18V213.828H114.213V203.646H120.108V204.607H115.233V208.214H119.746V209.175H115.233V212.867Z" fill="white"/>
<path d="M129.193 203.646H130.213V213.828H129.193V209.069H123.666V213.828H122.646V203.646H123.666V208.108H129.193V203.646Z" fill="white"/>
<path d="M134.281 212.867H139.229V213.828H133.268V203.646H139.156V204.607H134.281V208.214H138.788V209.175H134.281V212.867Z" fill="white"/>
<path d="M145.334 203.646C146.255 203.646 147.005 203.955 147.617 204.567C148.229 205.179 148.531 205.936 148.531 206.851C148.531 207.766 148.229 208.523 147.617 209.135C147.005 209.747 146.248 210.057 145.334 210.057H142.715V213.841H141.695V203.659H145.334V203.646ZM145.334 209.089C145.959 209.089 146.485 208.885 146.893 208.464C147.314 208.042 147.518 207.503 147.518 206.851C147.518 206.199 147.314 205.673 146.893 205.252C146.485 204.824 145.965 204.613 145.334 204.613H142.715V209.096H145.334V209.089Z" fill="white"/>
<path d="M156.677 203.646V204.607H152.019V213.828H151.006V203.646H156.677Z" fill="white"/>
<path d="M162.814 214C161.347 214 160.097 213.493 159.077 212.473C158.057 211.44 157.551 210.202 157.551 208.734C157.551 207.267 158.057 206.029 159.077 205.009C160.097 203.976 161.347 203.469 162.814 203.469C164.282 203.469 165.532 203.976 166.551 205.009C167.571 206.029 168.078 207.26 168.078 208.734C168.078 210.209 167.571 211.44 166.551 212.473C165.532 213.493 164.282 214 162.814 214ZM162.814 213.013C164.025 213.013 165.025 212.605 165.841 211.775C166.657 210.946 167.065 209.932 167.065 208.734C167.065 207.537 166.657 206.536 165.841 205.707C165.025 204.877 164.025 204.456 162.814 204.456C161.604 204.456 160.604 204.877 159.788 205.707C158.972 206.536 158.564 207.543 158.564 208.734C158.564 209.926 158.972 210.946 159.788 211.775C160.604 212.605 161.604 213.013 162.814 213.013Z" fill="white"/>
<path d="M177.817 203.646V213.828H176.804V204.607H171.567V213.828H170.547V203.646H177.817Z" fill="white"/>
<path d="M185.553 214C184.085 214 182.835 213.493 181.816 212.473C180.796 211.44 180.289 210.202 180.289 208.734C180.289 207.267 180.796 206.029 181.816 205.009C182.835 203.976 184.085 203.469 185.553 203.469C187.02 203.469 188.277 203.976 189.29 205.009C190.31 206.029 190.816 207.26 190.816 208.734C190.816 210.209 190.31 211.44 189.29 212.473C188.27 213.493 187.02 214 185.553 214ZM185.553 213.013C186.763 213.013 187.763 212.605 188.579 211.775C189.395 210.946 189.796 209.932 189.796 208.734C189.796 207.537 189.388 206.536 188.579 205.707C187.763 204.877 186.757 204.456 185.553 204.456C184.349 204.456 183.342 204.877 182.526 205.707C181.71 206.536 181.302 207.543 181.302 208.734C181.302 209.926 181.71 210.946 182.526 211.775C183.342 212.605 184.342 213.013 185.553 213.013Z" fill="white"/>
<path d="M194.218 212.473C193.212 211.453 192.705 210.202 192.705 208.734C192.705 207.267 193.212 206.009 194.218 204.996C195.218 203.976 196.501 203.469 198.041 203.469C199.916 203.469 201.587 204.443 202.449 205.97L201.548 206.497C200.91 205.259 199.554 204.463 198.041 204.463C196.778 204.463 195.732 204.871 194.929 205.7C194.133 206.529 193.725 207.53 193.725 208.741C193.725 209.952 194.133 210.953 194.929 211.782C195.732 212.611 196.778 213.02 198.041 213.02C199.554 213.02 200.91 212.216 201.548 210.986L202.449 211.492C201.62 213.02 199.923 214.013 198.041 214.013C196.501 214.013 195.218 213.507 194.218 212.486" fill="white"/>
<path d="M211.107 203.646V204.607H207.975V213.828H206.955V204.607H203.83V203.646H211.107Z" fill="white"/>
<path d="M219.332 213.828L218.384 211.327H213.555L212.614 213.828H211.535L215.45 203.646H216.496L220.411 213.828H219.332ZM213.924 210.366H218.029L215.976 204.916L213.924 210.366Z" fill="white"/>
<path d="M227.465 203.646H228.485V213.828H227.465V209.537C226.577 209.971 225.662 210.195 224.702 210.195C223.741 210.195 222.958 209.918 222.379 209.379C221.793 208.839 221.504 208.141 221.504 207.285V203.646H222.524V207.285C222.524 208.464 223.326 209.234 224.708 209.234C225.669 209.234 226.59 209.017 227.471 208.576V203.646H227.465Z" fill="white"/>
<path d="M238.315 213.828L237.368 211.327H232.538L231.591 213.828H230.512L234.426 203.646H235.473L239.387 213.828H238.308H238.315ZM232.9 210.366H236.999L234.946 204.916L232.893 210.366H232.9Z" fill="white"/>
<path d="M240.479 212.926C241.189 213.032 241.715 212.808 242.064 212.275C242.426 211.735 242.604 210.748 242.604 209.306V203.646H249.209V213.828H248.19V204.607H243.623V209.333C243.623 213.117 242.387 213.973 240.485 213.828V212.926H240.479Z" fill="white"/>
<path d="M255.894 207.424C256.809 207.424 257.565 207.727 258.177 208.339C258.789 208.951 259.098 209.708 259.098 210.623C259.098 211.538 258.789 212.295 258.177 212.907C257.572 213.519 256.809 213.822 255.894 213.822H252.256V203.64H253.276V207.424H255.894ZM255.894 212.868C256.519 212.868 257.046 212.664 257.447 212.243C257.868 211.815 258.072 211.282 258.072 210.623C258.072 209.965 257.868 209.445 257.447 209.024C257.039 208.603 256.519 208.385 255.894 208.385H253.276V212.868H255.894Z" fill="white"/>
<path d="M268.105 203.646H269.125V213.828H268.105V209.069H262.578V213.828H261.559V203.646H262.578V208.108H268.105V203.646Z" fill="white"/>
<path d="M278.724 213.828V205.535L273.046 213.828H272.178V203.646H273.191V211.939L278.869 203.646H279.738V213.828H278.724Z" fill="white"/>
<path d="M289.917 213.828H288.581L283.811 208.898V213.828H282.791V203.646H283.811V208.299L288.436 203.646H289.772L284.883 208.589L289.917 213.828Z" fill="white"/>
<path d="M204.403 70.2714C204.403 70.2714 207.877 79.6247 211.996 89.9653C220.648 93.4275 228.688 98.4366 235.715 104.848L215.937 62.2411L208.035 56.4028H166.854L182.618 13.7502L194.738 45.1867L205.804 40.4541L187.079 0L178.098 0.0197466L150.307 60.589L156.728 70.2648H204.403V70.2714Z" fill="white"/>
<path d="M222.741 119.072C211.819 109.107 197.66 103.617 182.863 103.617C168.065 103.617 153.906 109.107 142.984 119.072L130.01 104.848C144.485 91.6376 163.256 84.3643 182.863 84.3643C202.469 84.3643 221.241 91.6376 235.722 104.848L222.747 119.072H222.741Z" fill="#C0DB4D"/>
</g>
<defs>
<clipPath id="clip0_15987_621">
<rect width="365.745" height="214" fill="white"/>
</clipPath>
</defs>
</svg>
